<?xml version="1.0" encoding="UTF-8"?>
<svg id="Layer_1" xmlns="http://www.w3.org/2000/svg" version="1.1" viewBox="0 0 904.5 234.9">
  <!-- Generator: Adobe Illustrator 30.0.0, SVG Export Plug-In . SVG Version: 2.1.1 Build 123)  -->
  <defs>
    <style>
      .st0 {
        fill: none;
      }

      .st1 {
        fill: #fff;
      }

      .st2 {
        fill: #0aa3b0;
      }
    </style>
  </defs>
  <g>
    <path class="st1" d="M299.5,140.8c9.1,16.4,34.6,20.6,48.9,8.7,2.7-2.2,8.3-11.3,9-11.3,4.9,0,20.5-1,23.7,0,5.6,1.7-3.1,16.7-5.3,19.6-25.9,35.3-87.2,29.6-103.4-11.4-24-60.6,37.6-116.8,90.4-80.3,7.7,5.4,20.3,20.3,20.9,29.9,0,1-.8,2.6-1.5,2.6h-23.7c-1,0-6.7-9.2-8.4-10.8-8.2-7.6-23.6-9.1-33.9-5.6-20.8,7.1-26.4,41.1-16.7,58.5Z"/>
    <path class="st1" d="M606.4,84h-36.1c.5,3.7-.9,7.1-1.2,10.7-1.8,25.4,3,55.8.1,80.3-.1,1.1-.5,3.9-1.8,3.9h-23.7c-1.2,0-1.6-2.8-1.8-3.9-1.1-9.6,0-23.7,0-33.9-.1-19,.2-38.1,0-57.1h-36.1v-26h100.5v26Z"/>
    <path class="st1" d="M728.1,154.4c-13.2,22.1-41.2,30.2-65.5,25.3-69.4-14-59.6-131.9,22.2-123.9,21.5,2.1,46.8,20.1,48,42.9h-25.4c-1.5,0-6.2-8.5-7.9-10.2-10-9.7-29.8-10.6-41.1-2.8-15.1,10.5-18.8,39.6-10,55.1,10,17.6,38.4,20.8,52.3,6.4,2.4-2.5,4.5-9.1,5-9.1h25.4c5,0-1.7,13.8-3,16.1Z"/>
    <path class="st1" d="M854.8,177.2c0,.1-1.6,1.7-1.7,1.7h-25.4v-49.7h-49.7v48c0,.1-1.6,1.7-1.7,1.7h-25.4V59.8c0-.1,1.6-1.7,1.7-1.7h24.3c-.4,1.1,1.1,2.4,1.1,2.8v42.3h49.7v-43.5c0-.1,1.6-1.7,1.7-1.7h23.7c.1,0,1.7,1.6,1.7,1.7v117.4Z"/>
    <path class="st1" d="M904.5,177.2c0,.1-1.6,1.7-1.7,1.7h-23.7c-.1,0-1.7-1.6-1.7-1.7V59.8c0-.3,1.3-1.1,1.7-1.7h23.7c.1,0,1.7,1.6,1.7,1.7v117.4Z"/>
    <path class="st1" d="M853.1,58.1h-23.7c-.1,0-1.7,1.6-1.7,1.7v43.5h-49.7v-42.3c0-.4-1.5-1.7-1.1-2.8h-24.3c-.1,0-1.7,1.6-1.7,1.7v119.1h25.4c.1,0,1.7-1.6,1.7-1.7v-48h49.7v49.7h25.4c.1,0,1.7-1.6,1.7-1.7V59.8c0-.1-1.6-1.7-1.7-1.7Z"/>
    <path class="st1" d="M731.2,138.2h-25.4c-.5,0-2.6,6.6-5,9.1-13.9,14.4-42.4,11.2-52.3-6.4-8.7-15.4-5-44.6,10-55.1,11.3-7.9,31.1-6.9,41.1,2.8,1.7,1.7,6.4,10.2,7.9,10.2h25.4c-1.2-22.8-26.5-40.8-48-42.9-81.8-8-91.6,109.8-22.2,123.9,24.3,4.9,52.3-3.2,65.5-25.3,1.4-2.3,8.1-16.1,3-16.1Z"/>
    <path class="st1" d="M316.2,82.4c10.3-3.5,25.7-2,33.9,5.6,1.7,1.6,7.5,10.8,8.4,10.8h23.7c.7,0,1.6-1.6,1.5-2.6-.6-9.6-13.2-24.6-20.9-29.9-52.8-36.5-114.5,19.7-90.4,80.3,16.3,40.9,77.5,46.7,103.4,11.4,2.1-2.9,10.8-17.8,5.3-19.6-3.2-1-18.9,0-23.7,0s-6.3,9.1-9,11.3c-14.3,11.9-39.8,7.7-48.9-8.7-9.7-17.4-4-51.4,16.7-58.5Z"/>
    <path class="st1" d="M505.9,84h36.1c.1,19-.2,38,0,57.1,0,10.2-1.1,24.2,0,33.9.1,1.1.5,3.9,1.8,3.9h23.7c1.2,0,1.6-2.8,1.8-3.9,2.9-24.5-1.9-54.9-.1-80.3.2-3.6,1.7-7,1.2-10.7h36.1v-26h-100.5v26Z"/>
    <path class="st1" d="M902.8,58.1h-23.7c-.4.6-1.7,1.4-1.7,1.7v117.4c0,.1,1.6,1.7,1.7,1.7h23.7c.1,0,1.7-1.6,1.7-1.7V59.8c0-.1-1.6-1.7-1.7-1.7Z"/>
    <path class="st1" d="M462.5,58c-5,1-27.1-1.5-29.4,1.2l-44.4,116c-.7,1.3.4,3.4,1.5,3.7,5.7,1.7,19.3-1.2,26,0,1.3,0,7.6-19.6,7.4-22.5,6.4-.4,48.2-2.7,49.8-.5,2.8,7.5,4.9,16.7,9.5,23h26.5l-46.8-120.9ZM432.5,131.5l16.4-41.8,15.2,42.9-31.6-1.1Z"/>
  </g>
  <g>
    <g>
      <path class="st2" d="M196.3,28.7c2.3,2.5,1.1,8.5-3.1,9.2s-31.7.9-37.5,0c-5.8-.9-5.6-9.7.7-10.7,6.3-1,28.7-.8,35.4,0s3.8.9,4.5,1.6Z"/>
      <path class="st2" d="M168.8,45.3c2.8-.6,22.2-.6,25,0,4.7,1.1,5.3,8.9-1.4,9.9-4.1.6-18.9.6-22.9-.1-5.9-1.1-6-8.6-.7-9.8Z"/>
      <path class="st2" d="M190.5,61.9c8.8-2.6,9.2,12.1-.7,9.1s-2.9-8,.7-9.1Z"/>
    </g>
    <path class="st2" d="M139.1,157.8c10.2,4.4,13.1,24.2-1.9,20.6-10.7-2.5-3.1-15.9,1.9-20.6Z"/>
    <path class="st0" d="M191.8,27.1c-6.7-.7-29-.9-35.4,0-6.3,1-6.5,9.8-.7,10.7,5.7.9,31.7.9,37.5,0,4.2-.7,5.4-6.7,3.1-9.2-.7-.7-3.4-1.5-4.5-1.6Z"/>
    <path class="st0" d="M190.5,61.9c-3.7,1.1-4.6,7.9-.7,9.1,10,3,9.5-11.7.7-9.1Z"/>
    <path class="st0" d="M139.1,157.8c-5,4.7-12.6,18.1-1.9,20.6,15,3.5,12.1-16.2,1.9-20.6Z"/>
    <path class="st0" d="M193.8,45.3c-2.7-.6-22.2-.6-25,0-5.3,1.2-5.2,8.7.7,9.8,4,.7,18.7.7,22.9.1,6.6-1,6.1-8.8,1.4-9.9Z"/>
    <path class="st2" d="M218.1,49.1c-1.9-23-20.7-42.5-43.7-45.1l-127.6.2C25.6,7.2,10,24.2,5.9,44.9c.3,32.1-3.1,67.7-.8,99.6,1.5,20.6,14.8,41.4,35.5,46.8,8.9,2.3,14.1.9,22.6,1.2,10.7.4,20.3,3.9,21.8,15.7.8,6.2-2,10.8.6,17.5,2.5,6.6,10,7.5,15.5,3.9,13-8.5,25.9-23.5,38.7-32.8,10.6-7.6,24.9-3.1,37.3-4.5,21.9-2.6,39.4-25.1,41-46.4-1.9-31.4,2.5-65.7,0-96.8ZM186.7,110.2c5.7,2.5,10.3,3.5,3.3,9.7-17.4,15.6-52.2,20.5-74.7,19.1-11.4-.7-27.7-6.8-38.1-4.9-5.9,1.1-8.7,7.8-3,11.3,3.1,1.9,14.1,3.8,17.9,3.8,2.1,0,3.9-.8,5.7-.8,4.1,0,17.8-.7,20.3.7,10.5,5.9-10.5,15.1-13.6,17.5-6.2,4.8-2.3,10.7-1.9,17.5.2,3.4.5,10.8,0,13.8-.1.8-.4,1.3-1.1,1.8-10.5-3.3-20.8-8.2-28.2-16.6-2.7-3.1-4.9-7.7-7.6-10.5-3.4-3.4-9.2-6.5-13-10.1-24.3-23.2-27.2-59.9-7.5-87,7.7-10.6,22.4-21.4,24-35.2.7-5.9-1.6-13,7.2-13.6,10.2-.7,25.8,5.7,34.3,11.3,3.3,2.1,7.6,6.7,10.7,8.1,4.2,1.9,11.1,2.3,15.8,3.7,20.9,5.9,40.7,16.6,53,35.1,1.2,1.9,6.7,11.2,6.8,12.7.1,1.7-5.2,6.9-6.7,8.2-1.3,1.1-4.5,2.7-4.7,2.9-1.1,1.3.3,1.2,1,1.5Z"/>
    <path class="st1" d="M50,147.9l7.1,8.4c-4.1-13-.7-25.8,12.8-30.9,13.2-5,28.2,2.4,41.7,3.4,6.9.5,14.3-.4,21.3,0l-7.6-6.5c-12.6-14.1-12.8-40.8,2.9-52.7.9-.7,4.9-3.6,4.7-1.1-.2,3.1-4,8.1-5.1,11.5-6.3,18.6-.5,37,15.7,47.9,11.1-2.6,24-4.6,32.8-12.1-2.8,1.2-11.4-3.1-9.4-6,.9-1.3,9-5.9,11.2-7.8,2.7-2.2,5-5.1,7.4-7.6.1-1.4-8.6-12.2-10.2-13.8C123.2,29.2,7.4,66.3,50,147.9ZM107.3,105.8c-2.9,4.3-13.3,11.4-18.7,10.9-1.2-.1-4.7-2-6-2.7-2.9-1.7-12.1-9.9-11-13.4.6-2,9.1-3.6,11.3-3.9,4.7-.5,22.4-.3,25.4,3,1.7,1.8,0,4.4-1.1,6.1ZM158.2,96.8c-12.9,4-15.1-13.4-6-15.4,11.1-2.5,13.8,13,6,15.4Z"/>
  </g>
</svg>